<svg version="1.1" viewBox="0.0 0.0 920.0 100.0" fill="none" stroke="none" stroke-linecap="square" stroke-miterlimit="10" xmlns:xlink="http://www.w3.org/1999/xlink" xmlns="http://www.w3.org/2000/svg"><clipPath id="p.0"><path d="m0 0l920.0 0l0 100.0l-920.0 0l0 -100.0z" clip-rule="nonzero"/></clipPath><g clip-path="url(#p.0)"><path fill="#000000" fill-opacity="0.0" d="m0 0l920.0 0l0 100.0l-920.0 0z" fill-rule="evenodd"/><path fill="#00b7d8" d="m43.226936 63.500664l0 9.9756775c0 0.9912338 -0.1440773 1.7346573 -0.43222046 2.2302628c-0.27662277 0.6339264 -0.610878 1.0949631 -1.002758 1.38311c-0.39187622 0.28814697 -1.0834312 0.5013809 -2.074665 0.6396942c-1.3485298 0.20746613 -3.5787964 0.31119537 -6.690792 0.31119537c-2.6163769 0 -4.4374657 -0.13830566 -5.4632835 -0.41493225c-1.0258007 -0.28814697 -1.7173557 -0.89325714 -2.074665 -1.8153305c-0.35730934 -0.92207336 -0.5359554 -2.5472336 -0.5359554 -4.8754654c0 -2.4089127 0.17864609 -4.0917053 0.5359554 -5.0483475c0.35730934 -0.9566574 1.0315742 -1.5905762 2.0227985 -1.9017754c0.9912224 -0.3227234 2.69129 -0.4840889 5.100218 -0.4840889zm-9.768215 -29.32193c-7.514902 0 -14.067385 0.3515396 -19.657448 1.0546227l0 9.7855c7.6532135 -0.8529167 13.675499 -1.279377 18.066874 -1.279377c3.1811504 0 5.5670147 0.21323013 7.157591 0.6396904c1.6021004 0.42646027 2.7028236 1.1698799 3.3021774 2.2302628c0.59934235 1.0603828 0.89902115 2.6855392 0.89902115 4.8754654l0 3.5096397l-17.427185 0c-4.0340652 0 -7.2036858 0.5129013 -9.508881 1.5387115c-2.293662 1.0258064 -3.953394 2.7085953 -4.9791946 5.0483475c-1.0258017 2.3397636 -1.5387106 5.561264 -1.5387106 9.664482c0 4.598839 0.47833157 8.05085 1.4349766 10.356033c0.95664597 2.305191 2.6163778 3.9015274 4.9791956 4.7890167c2.3743324 0.87596893 5.970419 1.3139572 10.788258 1.3139572c5.7399063 0 9.63567 -0.4552765 11.687279 -1.3658218c2.051609 -0.85292053 3.6767654 -2.3051834 4.8754616 -4.3567963l0 4.6679993l15.1969185 0l0 -35.373035c0 -4.5988426 -0.7779999 -8.102722 -2.3339958 -10.511639c-1.5559998 -2.4089127 -4.126274 -4.108986 -7.7108383 -5.100216c-3.5730324 -0.9912262 -8.650192 -1.4868431 -15.231499 -1.4868431z" fill-rule="evenodd"/><path fill="#00b7d8" d="m100.47411 34.178734c-2.0516129 0 -4.120514 0.4956169 -6.206711 1.4868431c-2.0861893 0.9912262 -3.8035507 2.264843 -5.1520844 3.8208427c-1.3485336 1.555996 -2.0227966 3.1523361 -2.0227966 4.7890167l0 -9.04208l-14.764694 0l0 51.41711l15.508118 0l0 -30.912506c0 -3.1119995 1.0430984 -5.3422623 3.1292877 -6.690796c2.0977173 -1.3485336 5.3422623 -2.0227966 9.733635 -2.0227966l5.307678 0l0 -12.845634z" fill-rule="evenodd"/><path fill="#00b7d8" d="m135.00288 34.178734c-1.6251678 0.06915665 -3.503891 0.24780655 -5.6361847 0.5359535c-2.1207657 0.27662277 -3.820839 0.6281624 -5.100212 1.0546227c-1.5559998 0.56476974 -3.0947113 1.3254814 -4.616127 2.2821312c-1.5214233 0.9566498 -2.668251 1.9997444 -3.4404907 3.1292877c-2.1322937 3.1235237 -3.1984406 7.0192795 -3.1984406 11.687279l0 17.098698c0 5.809059 1.4522705 9.918045 4.3567963 12.326965c1.5559998 1.4176865 3.060135 2.4838333 4.512398 3.1984406c1.4522629 0.7030792 3.3136978 1.1929321 5.584305 1.4695511c2.2590866 0.28814697 4.1666183 0.4840927 5.722618 0.58782196c1.5675201 0.10373688 3.6940613 0.1556015 6.379593 0.1556015c5.1751404 0 10.984192 -0.59934235 17.427185 -1.7980423l0 -10.200439c-7.157593 1.5559998 -12.649689 2.3339996 -16.476303 2.3339996c-7.8491364 0 -11.773712 -2.7258759 -11.773712 -8.177635l0 -18.89674c0 -4.817833 3.5730286 -7.2267494 10.719101 -7.2267494c3.895752 0 9.491592 0.8471565 16.78749 2.5414658l0 -10.200436c-6.442978 -1.267849 -11.646942 -1.9017754 -15.611847 -1.9017754z" fill-rule="evenodd"/><path fill="#00b7d8" d="m196.50642 63.500664l0 9.9756775c0 0.9912338 -0.14407349 1.7346573 -0.43222046 2.2302628c-0.2766266 0.6339264 -0.61087036 1.0949631 -1.0027618 1.38311c-0.39187622 0.28814697 -1.083435 0.5013809 -2.0746613 0.6396942c-1.348526 0.20746613 -3.5787964 0.31119537 -6.690796 0.31119537c-2.6163788 0 -4.4374695 -0.13830566 -5.4632874 -0.41493225c-1.0258026 -0.28814697 -1.7173615 -0.89325714 -2.0746613 -1.8153305c-0.3572998 -0.92207336 -0.5359497 -2.5472336 -0.5359497 -4.8754654c0 -2.4089127 0.1786499 -4.0917053 0.5359497 -5.0483475c0.3572998 -0.9566574 1.0315704 -1.5905762 2.0227966 -1.9017754c0.9912262 -0.3227234 2.6912994 -0.4840889 5.1002197 -0.4840889zm-9.768219 -29.32193c-7.5148926 0 -14.067368 0.3515396 -19.65744 1.0546227l0 9.7855c7.6531982 -0.8529167 13.675491 -1.279377 18.066864 -1.279377c3.1811523 0 5.5670166 0.21323013 7.157593 0.6396904c1.6021118 0.42646027 2.702835 1.1698799 3.302185 2.2302628c0.5993347 1.0603828 0.89901733 2.6855392 0.89901733 4.8754654l0 3.5096397l-17.427185 0c-4.034073 0 -7.2036896 0.5129013 -9.508881 1.5387115c-2.2936554 1.0258064 -3.9533844 2.7085953 -4.9792023 5.0483475c-1.0258026 2.3397636 -1.5386963 5.561264 -1.5386963 9.664482c0 4.598839 0.47831726 8.05085 1.434967 10.356033c0.9566498 2.305191 2.6163788 3.9015274 4.9792023 4.7890167c2.3743286 0.87596893 5.970413 1.3139572 10.788254 1.3139572c5.7398987 0 9.635666 -0.4552765 11.687271 -1.3658218c2.0516205 -0.85292053 3.676773 -2.3051834 4.875473 -4.3567963l0 4.6679993l15.196915 0l0 -35.373035c0 -4.5988426 -0.7779999 -8.102722 -2.3339996 -10.511639c-1.5559998 -2.4089127 -4.1262817 -4.108986 -7.7108307 -5.100216c-3.5730438 -0.9912262 -8.6502075 -1.4868431 -15.231506 -1.4868431z" fill-rule="evenodd"/><path fill="#00b7d8" d="m250.14023 43.73948c3.0543518 0 5.3422546 0.21323013 6.863678 0.6396904c1.5214233 0.42646027 2.5818176 1.1180153 3.1811523 2.074665c0.5993347 0.9451256 0.89901733 2.3051872 0.89901733 4.0801735l0 20.71207c0 1.9132996 -0.28237915 3.3482742 -0.84713745 4.3049316c-0.5647888 0.9566498 -1.6654968 1.6136322 -3.302185 1.970932c-1.6251526 0.3457718 -4.172394 0.5186615 -7.641678 0.5186615c-2.8238525 0 -4.9100494 -0.20746613 -6.2585754 -0.6223984c-1.3485413 -0.42645264 -2.2533264 -1.1525879 -2.7143555 -2.1783981c-0.4610443 -1.0373306 -0.69155884 -2.547226 -0.69155884 -4.529686l0 -19.64016c0 -2.2014465 0.23051453 -3.7804947 0.69155884 -4.7371483c0.46102905 -0.9566498 1.4003906 -1.6251564 2.8180847 -2.0055122c1.4176941 -0.39188004 3.7516785 -0.58782196 7.001999 -0.58782196zm10.943848 -31.44846l0 28.682243c-1.2678528 -1.8441505 -2.506897 -3.2445488 -3.717102 -4.2011986c-1.1987 -0.9566498 -2.771988 -1.6251526 -4.719864 -2.0055084c-1.947876 -0.39188385 -4.621887 -0.58782196 -8.022034 -0.58782196c-7.2267456 0 -12.453751 1.1698837 -15.681015 3.5096397c-3.2157288 2.3282394 -4.823593 6.3277283 -4.823593 11.998478l0 20.07238c0 5.244301 0.56477356 9.105484 1.6943054 11.5835495c1.1410675 2.4780731 3.1638641 4.160858 6.068405 5.0483475c2.9045258 0.87596893 7.3996277 1.3139572 13.485321 1.3139572c3.7574463 0 6.592819 -0.24781036 8.506119 -0.74342346c1.8326263 -0.41493225 3.2618256 -1.0315628 4.2876434 -1.8499069c1.0258179 -0.8183441 2.1784058 -2.2533188 3.4577637 -4.3049316l0 5.843643l14.972168 0l0 -74.35944z" fill-rule="evenodd"/><path fill="#00b7d8" d="m313.87653 43.73948c3.2618408 0 5.58432 0.42646027 6.967407 1.279377c1.3831177 0.84139633 2.0746765 2.1150093 2.0746765 3.8208427l0 7.4342155l-18.602814 0l0 -7.4342155c0 -1.6366806 0.6742554 -2.9102974 2.0227966 -3.8208427c1.2793579 -0.8529167 3.7920227 -1.279377 7.5379333 -1.279377zm0.22476196 -9.560745c-8.64444 0 -15.041321 1.4522667 -19.190643 4.3567963c-4.1378174 2.9045296 -6.206726 7.578289 -6.206726 14.021275l0 18.481808c0 11.110977 9.099731 16.666473 27.299133 16.666473c7.157593 0 13.888733 -0.6685028 20.19342 -2.0055084l0 -9.889236c-6.3738403 1.4868469 -12.113739 2.2302628 -17.219727 2.2302628c-5.5209045 0 -9.347504 -0.63391876 -11.479797 -1.9017715c-2.1207886 -1.2793808 -3.1811523 -3.4059143 -3.1811523 -6.3796005l0 -4.6679916l33.367523 0l0 -12.534435c0 -6.661976 -1.8960266 -11.3876 -5.6880493 -14.176876c-3.7920227 -2.8007965 -9.756683 -4.201195 -17.893982 -4.201195z" fill-rule="evenodd"/><path fill="#00d343" d="m404.60498 17.719727l0 68.93074l53.64737 0l0 -11.791016l-37.06732 0l0 -17.738384l32.503082 0l0 -11.791008l-32.503082 0l0 -15.819321l35.995422 0l0 -11.791012z" fill-rule="evenodd"/><path fill="#00d343" d="m492.23947 34.178734c-8.563751 0 -14.972137 0.9393616 -19.22522 2.8180847c-4.2530518 1.867199 -6.3795776 5.036827 -6.3795776 9.508881l0 6.2585754c0 4.1839066 1.4868164 7.3535347 4.4605103 9.508877c2.9736938 2.155346 7.192169 3.2330208 12.655457 3.2330208l6.690796 0c2.8930054 0 4.8351135 0.374588 5.826355 1.1237793c1.0027466 0.73765564 1.5041199 1.9939728 1.5041199 3.7689743l0 3.1811523c0 1.7058334 -0.78375244 2.8757095 -2.3512878 3.509636c-1.5559998 0.6339264 -3.959137 0.9508896 -7.209442 0.9508896c-3.8265991 0 -10.6614685 -0.74341583 -20.504608 -2.2302628l0 10.304169c7.998993 1.0603867 14.758942 1.5905762 20.279846 1.5905762c2.904541 0 5.4575195 -0.10373688 7.658966 -0.311203c2.408905 -0.20746613 4.7256165 -0.59358215 6.9501343 -1.1583481c2.236023 -0.5763016 4.0570984 -1.3600693 5.4632874 -2.3512878c1.4983826 -1.0603867 2.7028198 -2.5068893 3.6133728 -4.339508c0.9220581 -1.8441467 1.3831177 -4.0052567 1.3831177 -6.48333l0 -6.48333c0 -8.217976 -6.2989197 -12.326969 -18.896759 -12.3269615l-6.811798 0c-1.7634888 0 -3.1062622 -0.3342514 -4.0283203 -1.002758c-0.9220581 -0.680027 -1.3831177 -1.4810753 -1.3831177 -2.4031525l0 -2.748932c0 -1.7058334 0.5647888 -2.8757172 1.6943359 -3.5096397c1.2793579 -0.56476974 4.005249 -0.8471565 8.177612 -0.8471565c1.4176941 0 7.6532288 0.42646027 18.706573 1.279377l0 -9.889233c-8.782745 -0.6339264 -14.874176 -0.9508896 -18.274353 -0.9508896z" fill-rule="evenodd"/><path fill="#00d343" d="m548.0065 34.178734c-8.563782 0 -14.972168 0.9393616 -19.22522 2.8180847c-4.253113 1.867199 -6.3796387 5.036827 -6.3796387 9.508881l0 6.2585754c0 4.1839066 1.4868774 7.3535347 4.4605713 9.508877c2.9736328 2.155346 7.1921387 3.2330208 12.655457 3.2330208l6.690796 0c2.8930054 0 4.835083 0.374588 5.826294 1.1237793c1.0028076 0.73765564 1.5041504 1.9939728 1.5041504 3.7689743l0 3.1811523c0 1.7058334 -0.78375244 2.8757095 -2.3512573 3.509636c-1.5560303 0.6339264 -3.9591675 0.9508896 -7.2094727 0.9508896c-3.8265991 0 -10.661499 -0.74341583 -20.504639 -2.2302628l0 10.304169c7.9990234 1.0603867 14.758972 1.5905762 20.279846 1.5905762c2.904541 0 5.4575195 -0.10373688 7.6589966 -0.311203c2.4089355 -0.20746613 4.725647 -0.59358215 6.9501343 -1.1583481c2.236023 -0.5763016 4.057129 -1.3600693 5.463257 -2.3512878c1.4984131 -1.0603867 2.7028198 -2.5068893 3.6134033 -4.339508c0.9220581 -1.8441467 1.3831177 -4.0052567 1.3831177 -6.48333l0 -6.48333c0 -8.217976 -6.29895 -12.326969 -18.896729 -12.3269615l-6.8118286 0c-1.7634888 0 -3.1062622 -0.3342514 -4.0283203 -1.002758c-0.9220581 -0.680027 -1.3831177 -1.4810753 -1.3831177 -2.4031525l0 -2.748932c0 -1.7058334 0.5647583 -2.8757172 1.6943359 -3.5096397c1.2793579 -0.56476974 4.005249 -0.8471565 8.177612 -0.8471565c1.4177246 0 7.6531982 0.42646027 18.706543 1.279377l0 -9.889233c-8.782715 -0.6339264 -14.8741455 -0.9508896 -18.274292 -0.9508896z" fill-rule="evenodd"/><path fill="#00d343" d="m603.9809 43.73948c3.2618408 0 5.5842896 0.42646027 6.967407 1.279377c1.3831177 0.84139633 2.074646 2.1150093 2.074646 3.8208427l0 7.4342155l-18.602844 0l0 -7.4342155c0 -1.6366806 0.6743164 -2.9102974 2.0228271 -3.8208427c1.2793579 -0.8529167 3.7920532 -1.279377 7.537964 -1.279377zm0.22473145 -9.560745c-8.644409 0 -15.041321 1.4522667 -19.190613 4.3567963c-4.1378174 2.9045296 -6.206726 7.578289 -6.206726 14.021275l0 18.481808c0 11.110977 9.099731 16.666473 27.299133 16.666473c7.157593 0 13.888733 -0.6685028 20.19342 -2.0055084l0 -9.889236c-6.3738403 1.4868469 -12.11377 2.2302628 -17.219727 2.2302628c-5.520935 0 -9.347534 -0.63391876 -11.479797 -1.9017715c-2.1207886 -1.2793808 -3.1812134 -3.4059143 -3.1812134 -6.3796005l0 -4.6679916l33.367554 0l0 -12.534435c0 -6.661976 -1.8959961 -11.3876 -5.6880493 -14.176876c-3.7919922 -2.8007965 -9.756653 -4.201195 -17.893982 -4.201195z" fill-rule="evenodd"/><path fill="#00d343" d="m671.43335 34.178734c-9.773987 0 -15.260315 2.443493 -16.459045 7.3304825l0 -6.27586l-15.300659 0l0 51.41711l15.508118 0l0 -35.68424c0 -2.063137 0.24780273 -3.5903168 0.7434082 -4.5815506c0.4956665 -0.9912262 1.4522705 -1.677021 2.869995 -2.0573769c1.4176636 -0.39188004 3.6479492 -0.58782196 6.690796 -0.58782196c2.4088745 0 4.1954346 0.21323013 5.359558 0.6396904c1.1755981 0.42646027 1.9536133 1.1353035 2.3339844 2.1265297c0.3918457 0.99123 0.5878296 2.4780731 0.5878296 4.4605293l0 35.68424l15.508118 0l0 -37.707035c0 -5.0944557 -1.3255005 -8.828854 -3.9764404 -11.20319c-2.651001 -2.3743362 -7.272888 -3.5615082 -13.865662 -3.5615082z" fill-rule="evenodd"/><path fill="#00d343" d="m707.5615 20.364923l0 14.868433l-10.425232 0l0 9.560745l10.425232 0l0 26.884197c0 2.6855392 0.4206543 5.0541153 1.262085 7.105728c0.78375244 1.9824524 1.7922363 3.54422 3.0255127 4.6852875c1.244812 1.1295395 2.8584595 2.0112686 4.8408813 2.645195c1.7750244 0.6454544 3.5442505 1.071907 5.307678 1.2793732c1.7750244 0.20746613 3.9707031 0.311203 6.587097 0.311203c2.4089355 0 5.2788696 -0.17288971 8.609863 -0.5186691l0 -9.6644745c-2.6970825 0.3457718 -4.5411987 0.5186615 -5.5324707 0.5186615c-2.4780884 0 -4.3222046 -0.26509857 -5.5324097 -0.7952881c-1.1987305 -0.5301895 -2.0112915 -1.4119186 -2.4377441 -2.645195c-0.414917 -1.2447968 -0.6223755 -3.1062317 -0.6223755 -5.584305l0 -24.221714l14.125 0l0 -9.560745l-14.125 0l0 -14.868433z" fill-rule="evenodd"/><path fill="#00d343" d="m746.5411 16.647816l0 12.534433l15.508118 0l0 -12.534433zm0 18.58554l0 51.41711l15.508118 0l0 -51.41711z" fill-rule="evenodd"/><path fill="#00d343" d="m806.87244 63.500664l0 9.9756775c0 0.9912338 -0.14404297 1.7346573 -0.43218994 2.2302628c-0.27661133 0.6339264 -0.6109009 1.0949631 -1.0027466 1.38311c-0.39190674 0.28814697 -1.083435 0.5013809 -2.074707 0.6396942c-1.3485107 0.20746613 -3.5787964 0.31119537 -6.690735 0.31119537c-2.616394 0 -4.4375 -0.13830566 -5.463318 -0.41493225c-1.0258179 -0.28814697 -1.7173462 -0.89325714 -2.074646 -1.8153305c-0.3572998 -0.92207336 -0.5359497 -2.5472336 -0.5359497 -4.8754654c0 -2.4089127 0.1786499 -4.0917053 0.5359497 -5.0483475c0.3572998 -0.9566574 1.0315552 -1.5905762 2.022766 -1.9017754c0.991272 -0.3227234 2.6913452 -0.4840889 5.1002197 -0.4840889zm-9.768188 -29.32193c-7.5148926 0 -14.067383 0.3515396 -19.65747 1.0546227l0 9.7855c7.6531982 -0.8529167 13.675537 -1.279377 18.066895 -1.279377c3.1811523 0 5.5670166 0.21323013 7.157593 0.6396904c1.6021118 0.42646027 2.7028198 1.1698799 3.302185 2.2302628c0.59936523 1.0603828 0.8989868 2.6855392 0.8989868 4.8754654l0 3.5096397l-17.427185 0c-4.0340576 0 -7.2036743 0.5129013 -9.50885 1.5387115c-2.2936401 1.0258064 -3.9533691 2.7085953 -4.979187 5.0483475c-1.0258179 2.3397636 -1.5386963 5.561264 -1.5386963 9.664482c0 4.598839 0.47827148 8.05085 1.4349365 10.356033c0.95666504 2.305191 2.616394 3.9015274 4.979187 4.7890167c2.3743896 0.87596893 5.970459 1.3139572 10.788269 1.3139572c5.739929 0 9.635681 -0.4552765 11.687317 -1.3658218c2.0515747 -0.85292053 3.6767578 -2.3051834 4.8754272 -4.3567963l0 4.6679993l15.196899 0l0 -35.373035c0 -4.5988426 -0.7779541 -8.102722 -2.3339844 -10.511639c-1.5559692 -2.4089127 -4.1262817 -4.108986 -7.7108154 -5.100216c-3.573059 -0.9912262 -8.6502075 -1.4868431 -15.231506 -1.4868431z" fill-rule="evenodd"/><path fill="#00d343" d="m836.4056 12.29102l0 74.35944l15.508118 0l0 -74.35944z" fill-rule="evenodd"/><path fill="#00d343" d="m889.4065 34.178734c-8.563782 0 -14.972168 0.9393616 -19.22522 2.8180847c-4.253113 1.867199 -6.3796387 5.036827 -6.3796387 9.508881l0 6.2585754c0 4.1839066 1.4868774 7.3535347 4.4605713 9.508877c2.9736328 2.155346 7.1921387 3.2330208 12.655457 3.2330208l6.690735 0c2.8930054 0 4.835144 0.374588 5.826355 1.1237793c1.0028076 0.73765564 1.5041504 1.9939728 1.5041504 3.7689743l0 3.1811523c0 1.7058334 -0.78375244 2.8757095 -2.3512573 3.509636c-1.5560303 0.6339264 -3.9591675 0.9508896 -7.2094727 0.9508896c-3.8265991 0 -10.661499 -0.74341583 -20.504639 -2.2302628l0 10.304169c7.9990234 1.0603867 14.758972 1.5905762 20.279846 1.5905762c2.904541 0 5.4575806 -0.10373688 7.6589966 -0.311203c2.4089355 -0.20746613 4.725647 -0.59358215 6.9501343 -1.1583481c2.236023 -0.5763016 4.057129 -1.3600693 5.463257 -2.3512878c1.4984131 -1.0603867 2.7028809 -2.5068893 3.6134033 -4.339508c0.9220581 -1.8441467 1.3831177 -4.0052567 1.3831177 -6.48333l0 -6.48333c0 -8.217976 -6.29895 -12.326969 -18.896729 -12.3269615l-6.8118286 0c-1.7634888 0 -3.1062622 -0.3342514 -4.0283203 -1.002758c-0.9220581 -0.680027 -1.3831177 -1.4810753 -1.3831177 -2.4031525l0 -2.748932c0 -1.7058334 0.5647583 -2.8757172 1.6943359 -3.5096397c1.2793579 -0.56476974 4.005249 -0.8471565 8.177612 -0.8471565c1.4177246 0 7.6531982 0.42646027 18.706543 1.279377l0 -9.889233c-8.782715 -0.6339264 -14.8741455 -0.9508896 -18.274292 -0.9508896z" fill-rule="evenodd"/><path fill="#cccccc" d="m348.00854 35.11496l0 14.660965l16.580048 0l0 -14.660965zm0 36.75615l0 14.660957l16.580048 0l0 -14.660957z" fill-rule="evenodd"/><path fill="#cccccc" d="m375.20157 35.11496l0 14.660965l16.580048 0l0 -14.660965zm0 36.75615l0 14.660957l16.580048 0l0 -14.660957z" fill-rule="evenodd"/></g></svg>
